<?xml version="1.0" encoding="UTF-8" standalone="no"?>
<!-- Created with Inkscape (http://www.inkscape.org/) -->

<svg
   xmlns:dc="http://purl.org/dc/elements/1.1/"
   xmlns:cc="http://creativecommons.org/ns#"
   xmlns:rdf="http://www.w3.org/1999/02/22-rdf-syntax-ns#"
   xmlns:svg="http://www.w3.org/2000/svg"
   xmlns="http://www.w3.org/2000/svg"
   xmlns:xlink="http://www.w3.org/1999/xlink"
   xmlns:sodipodi="http://sodipodi.sourceforge.net/DTD/sodipodi-0.dtd"
   xmlns:inkscape="http://www.inkscape.org/namespaces/inkscape"
   width="32mm"
   height="30mm"
   viewBox="0 0 113.38582 106.29921"
   id="svg2"
   version="1.1"
   inkscape:version="0.91 r13725"
   sodipodi:docname="Sofa-lineart.svg">
  <title
     id="title4136">sofa - lineart</title>
  <defs
     id="defs4">
    <pattern
       inkscape:collect="always"
       xlink:href="#Polkadots-large"
       id="pattern6000"
       patternTransform="matrix(0.69999999,0,0,0.69999999,-0.88262622,-11.738972)" />
    <pattern
       inkscape:collect="always"
       xlink:href="#Polkadots-large"
       id="pattern5906"
       patternTransform="matrix(0.63083514,0,0,0.66619048,-0.88262622,-11.738972)" />
    <pattern
       inkscape:collect="always"
       xlink:href="#Polkadots-large"
       id="pattern5812"
       patternTransform="matrix(0.63749999,0,0,0.59999999,-0.88262622,-11.738972)" />
    <pattern
       inkscape:collect="always"
       xlink:href="#Polkadots-large"
       id="pattern5718"
       patternTransform="matrix(0.55128557,0,0,0.55128562,-0.88262622,-11.738972)" />
    <pattern
       inkscape:stockid="Polka dots, large"
       id="Polkadots-large"
       patternTransform="translate(0,0) scale(10,10)"
       height="10"
       width="10"
       patternUnits="userSpaceOnUse"
       inkscape:collect="always">
      <circle
         id="circle5408"
         r="0.45"
         cy="0.810"
         cx="2.567"
         style="fill:black;stroke:none" />
      <circle
         id="circle5410"
         r="0.45"
         cy="2.33"
         cx="3.048"
         style="fill:black;stroke:none" />
      <circle
         id="circle5412"
         r="0.45"
         cy="2.415"
         cx="4.418"
         style="fill:black;stroke:none" />
      <circle
         id="circle5414"
         r="0.45"
         cy="3.029"
         cx="1.844"
         style="fill:black;stroke:none" />
      <circle
         id="circle5416"
         r="0.45"
         cy="1.363"
         cx="6.08"
         style="fill:black;stroke:none" />
      <circle
         id="circle5418"
         r="0.45"
         cy="4.413"
         cx="5.819"
         style="fill:black;stroke:none" />
      <circle
         id="circle5420"
         r="0.45"
         cy="4.048"
         cx="4.305"
         style="fill:black;stroke:none" />
      <circle
         id="circle5422"
         r="0.45"
         cy="3.045"
         cx="5.541"
         style="fill:black;stroke:none" />
      <circle
         id="circle5424"
         r="0.45"
         cy="5.527"
         cx="4.785"
         style="fill:black;stroke:none" />
      <circle
         id="circle5426"
         r="0.45"
         cy="5.184"
         cx="2.667"
         style="fill:black;stroke:none" />
      <circle
         id="circle5428"
         r="0.45"
         cy="1.448"
         cx="7.965"
         style="fill:black;stroke:none" />
      <circle
         id="circle5430"
         r="0.45"
         cy="5.049"
         cx="7.047"
         style="fill:black;stroke:none" />
      <circle
         id="circle5432"
         r="0.45"
         cy="0.895"
         cx="4.340"
         style="fill:black;stroke:none" />
      <circle
         id="circle5434"
         r="0.45"
         cy="0.340"
         cx="7.125"
         style="fill:black;stroke:none" />
      <circle
         id="circle5436"
         r="0.45"
         cy="1.049"
         cx="9.553"
         style="fill:black;stroke:none" />
      <circle
         id="circle5438"
         r="0.45"
         cy="2.689"
         cx="7.006"
         style="fill:black;stroke:none" />
      <circle
         id="circle5440"
         r="0.45"
         cy="2.689"
         cx="8.909"
         style="fill:black;stroke:none" />
      <circle
         id="circle5442"
         r="0.45"
         cy="4.407"
         cx="9.315"
         style="fill:black;stroke:none" />
      <circle
         id="circle5444"
         r="0.45"
         cy="3.870"
         cx="7.820"
         style="fill:black;stroke:none" />
      <circle
         id="circle5446"
         r="0.45"
         cy="5.948"
         cx="8.270"
         style="fill:black;stroke:none" />
      <circle
         id="circle5448"
         r="0.45"
         cy="7.428"
         cx="7.973"
         style="fill:black;stroke:none" />
      <circle
         id="circle5450"
         r="0.45"
         cy="8.072"
         cx="9.342"
         style="fill:black;stroke:none" />
      <circle
         id="circle5452"
         r="0.45"
         cy="9.315"
         cx="8.206"
         style="fill:black;stroke:none" />
      <circle
         id="circle5454"
         r="0.45"
         cy="9.475"
         cx="9.682"
         style="fill:black;stroke:none" />
      <circle
         id="circle5456"
         r="0.45"
         cy="6.186"
         cx="9.688"
         style="fill:black;stroke:none" />
      <circle
         id="circle5458"
         r="0.45"
         cy="6.296"
         cx="3.379"
         style="fill:black;stroke:none" />
      <circle
         id="circle5460"
         r="0.45"
         cy="8.204"
         cx="2.871"
         style="fill:black;stroke:none" />
      <circle
         id="circle5462"
         r="0.45"
         cy="8.719"
         cx="4.59"
         style="fill:black;stroke:none" />
      <circle
         id="circle5464"
         r="0.45"
         cy="9.671"
         cx="3.181"
         style="fill:black;stroke:none" />
      <circle
         id="circle5466"
         r="0.45"
         cy="7.315"
         cx="5.734"
         style="fill:black;stroke:none" />
      <circle
         id="circle5468"
         r="0.45"
         cy="6.513"
         cx="6.707"
         style="fill:black;stroke:none" />
      <circle
         id="circle5470"
         r="0.45"
         cy="9.670"
         cx="5.730"
         style="fill:black;stroke:none" />
      <circle
         id="circle5472"
         r="0.45"
         cy="8.373"
         cx="6.535"
         style="fill:black;stroke:none" />
      <circle
         id="circle5474"
         r="0.45"
         cy="7.154"
         cx="4.37"
         style="fill:black;stroke:none" />
      <circle
         id="circle5476"
         r="0.45"
         cy="7.25"
         cx="0.622"
         style="fill:black;stroke:none" />
      <circle
         id="circle5478"
         r="0.45"
         cy="5.679"
         cx="0.831"
         style="fill:black;stroke:none" />
      <circle
         id="circle5480"
         r="0.45"
         cy="8.519"
         cx="1.257"
         style="fill:black;stroke:none" />
      <circle
         id="circle5482"
         r="0.45"
         cy="6.877"
         cx="1.989"
         style="fill:black;stroke:none" />
      <circle
         id="circle5484"
         r="0.45"
         cy="3.181"
         cx="0.374"
         style="fill:black;stroke:none" />
      <circle
         id="circle5486"
         r="0.45"
         cy="1.664"
         cx="1.166"
         style="fill:black;stroke:none" />
      <circle
         id="circle5488"
         r="0.45"
         cy="0.093"
         cx="1.151"
         style="fill:black;stroke:none" />
      <circle
         id="circle5490"
         r="0.45"
         cy="10.093"
         cx="1.151"
         style="fill:black;stroke:none" />
      <circle
         id="circle5492"
         r="0.45"
         cy="4.451"
         cx="1.302"
         style="fill:black;stroke:none" />
      <circle
         id="circle5494"
         r="0.45"
         cy="3.763"
         cx="3.047"
         style="fill:black;stroke:none" />
    </pattern>
  </defs>
  <sodipodi:namedview
     id="base"
     pagecolor="#ffffff"
     bordercolor="#666666"
     borderopacity="1.0"
     inkscape:pageopacity="0.0"
     inkscape:pageshadow="2"
     inkscape:zoom="1"
     inkscape:cx="59.360841"
     inkscape:cy="37.224612"
     inkscape:document-units="mm"
     inkscape:current-layer="layer2"
     showgrid="false"
     borderlayer="true"
     inkscape:snap-global="false"
     inkscape:window-width="2560"
     inkscape:window-height="1321"
     inkscape:window-x="0"
     inkscape:window-y="0"
     inkscape:window-maximized="1"
     showguides="true"
     inkscape:guide-bbox="true"
     fit-margin-top="1"
     fit-margin-right="1"
     fit-margin-bottom="1"
     fit-margin-left="1" />
  <metadata
     id="metadata7">
    <rdf:RDF>
      <cc:Work
         rdf:about="">
        <dc:format>image/svg+xml</dc:format>
        <dc:type
           rdf:resource="http://purl.org/dc/dcmitype/StillImage" />
        <dc:title>sofa - lineart</dc:title>
        <cc:license
           rdf:resource="http://creativecommons.org/publicdomain/zero/1.0/" />
        <dc:date>2016-04-01</dc:date>
        <dc:creator>
          <cc:Agent>
            <dc:title>Frank Tremmel</dc:title>
          </cc:Agent>
        </dc:creator>
        <dc:subject>
          <rdf:Bag>
            <rdf:li>sofa</rdf:li>
            <rdf:li>couch</rdf:li>
            <rdf:li>furniture</rdf:li>
            <rdf:li>school</rdf:li>
            <rdf:li>teaching</rdf:li>
            <rdf:li>education</rdf:li>
            <rdf:li>Möbel</rdf:li>
            <rdf:li>Schule</rdf:li>
            <rdf:li>Unterricht</rdf:li>
            <rdf:li>Erziehung</rdf:li>
            <rdf:li>line art</rdf:li>
            <rdf:li>outline</rdf:li>
            <rdf:li></rdf:li>
          </rdf:Bag>
        </dc:subject>
        <dc:description>line art sofa</dc:description>
      </cc:Work>
      <cc:License
         rdf:about="http://creativecommons.org/publicdomain/zero/1.0/">
        <cc:permits
           rdf:resource="http://creativecommons.org/ns#Reproduction" />
        <cc:permits
           rdf:resource="http://creativecommons.org/ns#Distribution" />
        <cc:permits
           rdf:resource="http://creativecommons.org/ns#DerivativeWorks" />
      </cc:License>
    </rdf:RDF>
  </metadata>
  <g
     inkscape:groupmode="layer"
     id="layer2"
     inkscape:label="Ebene 2"
     style="display:inline"
     transform="translate(4.3025492,13.29698)">
    <path
       style="fill:#ffffff;fill-rule:evenodd;stroke:#0000ff;stroke-width:0.14173228;stroke-linecap:butt;stroke-linejoin:miter;stroke-miterlimit:4;stroke-dasharray:none;stroke-opacity:1"
       d="m 65.617374,39.497737 1.03125,-2.09375 2.21875,-5.84375 2.5625,-4.125 2.5,-6.25 0.9375,-2.125 c 0.578296,-0.428797 1.064136,0.06697 1.5625,0.4375 1.769293,0.0108 2.9157,1.018213 4.3125,1.625 l 3.6875,0.21875 c 0.918092,-0.348025 1.633216,-0.618397 2.46875,-0.71875 0.52665,0.03355 1.736567,0.147341 1.53125,0.8125 l -5.5625,10.875 -6,0.8125 c -1.024247,0.204366 -2.520052,1.038446 -3.3125,3.375 l -0.5,5.3125 -3.6875,-1.6875 c -1.279988,-0.0434 -2.624235,0.266626 -3.75,-0.625 z"
       id="path4235"
       inkscape:connector-curvature="0"
       sodipodi:nodetypes="ccccccccccccccccc" />
    <path
       style="fill:#ffffff;fill-rule:evenodd;stroke:#ff00ff;stroke-width:0.29055119;stroke-linecap:butt;stroke-linejoin:miter;stroke-miterlimit:4;stroke-dasharray:none;stroke-opacity:1"
       d="m 0.99237378,61.747738 c 1.00000002,-3.1875 1.12500002,-9.9375 1.12500002,-9.9375 -0.2250436,-4.161273 0.3840897,-9.037554 -0.875,-12.312501 -0.87709972,-1.306201 -1.8161018,-2.426695 -2.375,-4.6875 -0.070381,-1.724849 0.32051755,-3.295939 1.24999998,-4.6875 1.00538212,-1.56111 2.21238472,-1.509256 3.37500002,-1.8125 l 17.4375002,-1.25 0.8125,-2 2.6875,-9 c 1.337775,-0.761239 3.393375,-1.196193 6.5625,-1.125 l 23.5625,0.4375 1.5625,0.8125 8.5625,-1.0625 25.3125,0.8125 8.125,-0.0625 c 1.23929,0.585118 1.62284,1.31286 1.875,2.0625 l -0.375,6.25 1.749996,0.875 -0.375,4.1875 c 2.34028,0.802079 3.25917,2.670206 4.3125,4.4375 0.48529,1.832838 0.34279,3.289006 0,4.625 -0.7104,1.6875 -1.52767,2.8125 -3.375,4.5 l -0.375,13.437501 c 1.02337,3.960872 1.59607,7.471074 1.125,9.9375 l -19.999996,10.6875 -3.125,-0.125 -20.5,-5.0625 -12.625,-2 -6.375,-0.1875 -4.5,-1.75 -23,-4.375 z"
       id="path4231"
       inkscape:connector-curvature="0"
       sodipodi:nodetypes="cccccccccccccccccccccccccccccccc" />
    <path
       style="fill:url(#pattern5718);fill-opacity:1;fill-rule:evenodd;stroke:none;stroke-width:0.29055119;stroke-linecap:butt;stroke-linejoin:miter;stroke-miterlimit:4;stroke-dasharray:none;stroke-opacity:1"
       d="m 81.848868,49.393792 19.798982,-5.391689 0.53033,-1.325826 1.94455,-1.767767 -21.124814,4.949748 -1.59099,1.856155 z"
       id="path4237"
       inkscape:connector-curvature="0" />
    <path
       style="fill:url(#pattern5812);fill-opacity:1;fill-rule:evenodd;stroke:#ff00ff;stroke-width:0.29055119;stroke-linecap:butt;stroke-linejoin:miter;stroke-miterlimit:4;stroke-dasharray:none;stroke-opacity:1"
       d="m 89.803819,31.185792 c -0.309354,-1.073548 0.472502,-1.737893 1.06066,-2.474874 l 4.419417,-0.707106 c 0.27054,-0.184741 0.493522,-0.559714 0.530331,-1.679379 l 0.795495,-10.606602 c 1.661959,-0.03597 2.814502,0.762288 3.535528,2.96101 l -0.707106,5.170718 c 0.633446,0.307631 1.443676,0.337901 2.077126,1.811962 l -0.88388,4.021669 z"
       id="path5720"
       inkscape:connector-curvature="0"
       sodipodi:nodetypes="cccccccccc" />
    <path
       style="fill:url(#pattern6000);fill-opacity:1;fill-rule:evenodd;stroke:none;stroke-width:0.29055119;stroke-linecap:butt;stroke-linejoin:miter;stroke-miterlimit:4;stroke-dasharray:none;stroke-opacity:1"
       d="m 67.117374,35.685237 c 0.0707,-1.886665 4.098724,-0.02728 9.3125,-2.6875 l -3.125,3.375 0,5.8125 c 0,0 -2.8125,-1.8125 -3.125,-1.875 -0.3125,-0.0625 -2.625,-0.5625 -2.625,-0.5625 l -1,0.1875 -1,-0.4375 c 0.731347,-0.655763 0.982223,-2.401383 1.5625,-3.8125 z"
       id="path5908"
       inkscape:connector-curvature="0"
       sodipodi:nodetypes="ccccscccc" />
    <path
       style="color:#000000;font-style:normal;font-variant:normal;font-weight:normal;font-stretch:normal;font-size:medium;line-height:normal;font-family:sans-serif;text-indent:0;text-align:start;text-decoration:none;text-decoration-line:none;text-decoration-style:solid;text-decoration-color:#000000;letter-spacing:normal;word-spacing:normal;text-transform:none;direction:ltr;block-progression:tb;writing-mode:lr-tb;baseline-shift:baseline;text-anchor:start;white-space:normal;clip-rule:nonzero;display:inline;overflow:visible;visibility:visible;opacity:1;isolation:auto;mix-blend-mode:normal;color-interpolation:sRGB;color-interpolation-filters:linearRGB;solid-color:#000000;solid-opacity:1;fill:#000000;fill-opacity:1;fill-rule:evenodd;stroke:none;stroke-width:1.77165353;stroke-linecap:butt;stroke-linejoin:miter;stroke-miterlimit:4;stroke-dasharray:none;stroke-dashoffset:0;stroke-opacity:1;color-rendering:auto;image-rendering:auto;shape-rendering:auto;text-rendering:auto;enable-background:accumulate"
       d="m 32.234562,14.034466 c -2.197028,-0.01767 -4.389783,0.08274 -6.472657,0.517578 -9.7e-5,2.1e-5 -0.0039,-10e-6 -0.0039,0 -0.01,0.0022 0.0026,-3.41e-4 -0.0078,0.002 -1.078738,0.236808 -1.886292,0.894115 -2.357421,1.693359 -0.47113,0.799244 -0.681963,1.699818 -0.890625,2.644531 -0.35881,1.624502 -1.531939,6.347253 -1.544922,6.408203 -0.194592,0.913534 -0.587723,0.99637 -0.871094,1.080079 -0.443622,0.131049 -4.383741,0.340465 -8.560547,0.625 -2.0884032,0.142267 -4.1943742,0.292979 -5.8222657,0.419921 -1.0569768,0.08242 -2.1929258,0.08391 -3.1210937,0.332032 -1.69140552,0.452148 -2.7587165,1.430476 -3.35546882,2.507812 -0.59921178,1.081777 -0.73450008,2.245452 -0.83593748,3.316406 -0.185915,1.962852 0.4190778,4.225039 1.86328128,5.822266 0.4406939,0.487389 0.5880842,0.988629 0.6269531,1.675781 0.20096812,3.552853 0.17260862,7.117729 0.23242192,10.675782 0.00654,0.389261 0.33216,0.473874 0.3691406,0.664062 0.054119,0.27833 -0.3280915,2.55451 -0.51171882,3.806641 -0.2215524,1.510736 -0.92405869,3.393188 -0.7910156,4.59375 0.133043,1.200561 0.5193623,1.806426 1.03125002,1.992187 1.5604688,0.566286 3.2558751,0.600614 4.9707031,0.814453 2.7403208,0.341718 5.4532801,0.493017 8.0722661,0.931641 3.257289,0.545527 6.49894,1.536081 9.882812,2.179687 4.124214,0.784419 8.259338,0.927507 12.103516,1.935547 1.039652,0.272623 2.158936,1.020654 3.626953,1.333985 2.489252,0.531301 4.916182,0.217816 7.095703,0.482422 3.804514,0.461888 7.591706,1.231022 11.390625,2.013672 7.16929,1.477011 14.213127,4.205864 21.53711,5.074218 0.977215,0.115862 1.994845,0.245653 2.951171,0.01367 7.583269,-1.839516 20.757808,-10.822265 20.757808,-10.822266 0.78442,-0.505432 -0.84126,-7.369718 -0.98437,-11.072265 -0.15485,-4.00623 0.15991,-11.537939 0.13672,-12.027344 -0.0171,-0.360866 0.12706,-0.545769 1.01367,-1.064453 0.88661,-0.518684 1.86423,-2.181837 2.34179,-4.039062 0.49675,-1.931799 0.45138,-4.135115 -0.46484,-5.994141 -0.69994,-1.420175 -1.84678,-2.974805 -4.05469,-3.742188 0.15651,-0.583522 0.17156,-1.112699 0.26758,-1.859375 0.18468,-1.436017 0.156,-1.716197 -0.23828,-2.380859 -0.23245,-0.391863 -1.08038,-0.606215 -1.46875,-0.822266 l 0.55859,-4.921875 c 0.0484,-0.426724 -0.0971,-1.465592 -0.734366,-2.335937 -0.63721,-0.870346 -1.965844,-1.644531 -3.54883,-1.644531 l -0.01172,0 c -7.443365,0 -14.892259,-0.202221 -22.425781,-0.332032 -5.57932,-0.09614 -11.926278,-0.85965 -17.535157,0.701172 -0.755141,-0.384104 -1.577817,-0.656493 -2.703125,-0.794922 -1.361788,-0.167519 -2.981777,-0.236347 -4.71289,-0.259765 -3.462226,-0.04684 -7.365396,0.09065 -10.292969,0.04297 -2.105636,-0.03429 -4.309466,-0.169825 -6.507812,-0.1875 z m -0.01758,1.783203 c 2.13532,0.01657 4.338565,0.140642 6.496094,0.175781 3.007127,0.04898 6.899785,-0.08892 10.296875,-0.04297 1.698545,0.02298 3.272596,0.09246 4.521484,0.246094 0.825255,0.101518 1.492026,0.320953 1.94336,0.476562 -1.06726,8.558464 -3.312712,15.727196 -4.011719,22.107422 -7.373197,-1.757674 -16.877593,-2.71222 -23.753906,-2.59375 -0.586191,0.0101 -1.496181,0.08948 -2.041016,0.11523 0.03381,-0.360041 0.07555,-1.176127 0.115235,-2.308594 0.04995,-1.425332 0.16554,-3.018239 -0.199219,-4.117188 -0.588437,-1.772852 -1.730411,-2.697472 -3.277344,-3.039062 0.662272,-2.451824 1.368676,-5.073711 1.923828,-7.5625 0.20123,-0.911064 0.410057,-1.652973 0.689453,-2.126953 0.278884,-0.473111 0.553016,-0.722876 1.207032,-0.861328 1.886181,-0.399294 3.954523,-0.485318 6.089843,-0.468744 z m 32.902344,0.226562 c 2.935383,0.0063 5.948274,0.209059 8.835938,0.259766 l 20.798828,0.365234 c 1.359225,0.02387 1.143722,0.732455 1.089843,1.357422 -0.2485,2.882531 -0.497593,5.609058 -0.746093,8.648437 -0.01713,0.209463 -0.09656,0.737576 -1.642578,0.832032 -1.546013,0.09446 -2.699444,0.586208 -3.417969,1.236328 -0.718526,0.65012 -0.991484,1.569956 -1.03125,1.677734 L 77.306826,32.08134 c -0.492384,0.0699 -1.08084,0.216183 -1.585937,0.53125 -0.505097,0.315067 -1.066402,0.736545 -1.580078,1.31836 -0.559367,0.633566 -1.041106,1.413015 -1.396485,2.388672 -0.501164,1.375896 -0.419922,2.673047 -0.419922,4.05664 -6.192912,-0.522956 -12.986915,-1.628311 -19.542969,-1.40625 0.70722,-6.044703 3.372134,-13.499352 4.449219,-22.123046 2.449469,-0.635154 5.133483,-0.808656 7.888672,-0.802735 z m 32.537109,0.732422 c 0.191609,-0.03335 0.925781,0.241184 1.136719,0.529297 0.32687,0.446451 0.53177,1.28538 0.48047,1.945312 0,0 -0.333028,3.841388 -0.550782,5.71875 -0.151317,1.304575 -0.632813,3.888672 -0.632813,3.888672 l -7.140625,1.185547 c 0.385598,-0.514987 1.707714,-0.81329 3.361328,-0.925781 1.653614,-0.112492 2.124672,-1.622998 2.169922,-2.173828 0.351507,-4.278879 0.454435,-6.07155 0.681641,-9.107422 0.01766,-0.236012 0.07008,-0.986749 0.49414,-1.060547 z m 2.369135,8.142578 c 0.286,-0.02412 0.74913,0.265396 0.8086,0.4375 0.0739,0.213825 0.11038,0.621618 -0.0312,1.259766 -0.14167,0.638148 -0.19821,1.328988 -0.3711,1.984375 l -0.947256,0.126953 z m -75.505853,5.339844 c 0.204175,0.615144 0.268793,2.248774 0.220703,3.621094 -0.04541,1.295832 -0.146341,2.33333 -0.158203,2.453125 -1.027605,0.08254 -5.280519,1.175946 -6.0625,1.378906 -4.560203,1.183584 -5.825426,1.307727 -10.3964808,2.459025 l -0.080078,-6.673828 c -0.011576,-0.964796 -0.3709345,-3.003142 -1.4003906,-4.365234 1.5007496,-0.114148 3.2063452,-0.236921 5.0039064,-0.359375 4.15573,-0.283099 7.963587,-0.675297 7.992187,-0.679688 0.518867,-0.07966 1.270497,-0.11884 2.235196,-0.12891 0.964699,-0.01007 2.118947,0.707994 2.64566,2.294885 z m -19.1855463,0.06055 c 0.6504853,0.649544 0.9958754,2.056301 1.0019531,4.148437 L 6.386905,51.948528 C 5.2059156,51.72164 2.9551422,51.499454 2.8439363,51.26884 2.7727128,47.894502 2.8069353,44.070524 2.6447176,40.92509 2.6001283,40.060495 2.3338884,39.062542 1.5685457,38.216106 0.54430748,37.083343 -0.00159474,35.188987 0.13495188,33.747356 c 0.097378,-1.028098 0.2564133,-1.93137 0.640625,-2.625 0.38421182,-0.69363 0.93596172,-1.580976 2.19335942,-1.699219 0.9289649,-0.08736 1.8254712,0.357503 2.3652344,0.896488 z m 94.9570293,-0.0078 c 2.11528,0.508386 3.15587,1.871721 3.78125,3.140625 0.67299,1.365494 0.72612,3.09371 0.32031,4.671875 -0.40581,1.578166 -1.2991,2.83516 -2.09961,3.357422 -0.80052,0.522267 -1.27548,1.344921 -1.29492,2.550781 L 100.81659,55.2962 82.076358,63.194638 c 0.120399,-4.768819 0.293781,-10.130867 0.351563,-14.824219 0.05439,-0.382725 0.159017,-0.683547 1.175781,-2.0625 1.016765,-1.378953 1.668173,-2.415346 1.96875,-3.273437 0.240172,-0.685646 0.343819,-1.499043 0.408203,-2.111329 0.190582,-1.812423 -0.397984,-3.967198 -1.689453,-5.771484 -0.571467,-0.798386 -1.382134,-1.458735 -2.292969,-2.005859 z m -21.521482,3.449203 c 1.904368,0.10488 3.203799,1.197662 4.080078,2.421875 1.007651,1.407748 1.480803,3.232549 1.371094,4.548828 -0.0473,0.567535 -0.198508,1.249144 -0.316407,1.705078 -0.133624,0.516743 -0.697376,1.549784 -2.316406,3.742188 -0.493511,0.668287 -0.649682,1.357039 -0.738281,1.980469 -0.115726,4.819326 -0.03683,10.32201 -0.173828,15.203124 l -7.06836,-0.810546 c 0,0 0.273438,-15.682981 0.273438,-23.28125 0,-1.845494 0.823616,-3.21665 1.626953,-4.107422 0.666411,-0.738943 1.553431,-1.304663 2.408203,-1.384766 0.297284,-0.02786 0.581463,-0.03256 0.853516,-0.01758 z m -51.027344,3.625 c 5.346555,-0.07193 13.851698,1.028958 20.21875,2.142578 -4.60068,0.896439 -7.859822,2.420786 -10.287109,4.080078 -1.792302,-0.114211 -3.955711,-0.382649 -5.746094,-0.546875 L 9.4181548,41.139934 21.959171,38.128216 c 1.350582,-0.324342 3.542645,-0.712046 5.783203,-0.742188 z m 23.611328,2.748047 c 2.224258,-0.004 3.584889,0.369257 4.263672,0.361328 6.01444,-0.07026 10.758181,0.70345 16.75,1.199219 l 0.25,5.849609 c 0,0 -13.399638,-1.007614 -19.908203,-1.830078 C 48.443255,45.175085 39.15253,43.68095 39.15253,43.68095 c 2.374045,-1.404443 5.919831,-2.935813 9.681641,-3.388672 0.940452,-0.113215 1.778112,-0.156856 2.519531,-0.158203 z M 7.9865144,42.075481 c 0,0 15.8447786,1.979638 23.7617186,2.521485 1.63048,0.111592 5.408203,0.273437 5.408203,0.273437 -0.102575,1.914782 -0.09399,4.014618 -0.101562,5.953125 C 27.517865,50.11375 16.90527,49.459281 7.5841707,47.579387 6.9757297,45.962013 7.1680495,43.721986 7.9865144,42.075481 Z m 30.4902346,3.160156 c 0,0 9.33728,1.51325 14.029297,2.09961 6.581613,0.822503 20.111328,2.050781 20.111328,2.050781 l 0.0625,5.994141 C 61.271662,54.926123 49.555748,53.507696 38.28339,51.052044 c 0.0058,-2.11445 0.07539,-4.023282 0.193359,-5.816407 z M 7.27753,48.415325 c 9.383595,1.860158 20.284786,3.438739 29.712891,4.140625 -0.137328,0.656886 -0.898015,3.971219 -0.833985,5.941406 0.05422,1.668257 -0.219011,3.836208 -0.15039,5.802734 0.03431,0.983266 -0.0855,1.619467 -0.05273,2.47461 C 33.997789,66.635702 28.201314,65.705666 24.466983,64.995403 21.20975,64.375884 17.957072,63.380961 14.547062,62.809856 11.79888,62.349594 9.0604654,62.199205 6.4005769,61.86845 5.2452027,61.72478 2.9898778,61.416087 2.6759676,61.360637 2.4486952,61.320491 2.1059858,61.280091 2.0001863,60.684856 1.8943868,60.089621 2.4666021,58.229001 2.7228426,56.481731 2.8837224,55.384712 2.9732634,53.113174 3.0685457,52.380169 l 4.3164062,0.617187 z m 30.732422,4.240234 c 11.530809,2.537503 22.940587,4.037534 34.607422,4.498047 l -0.04297,6.179688 7.50586,0.982422 c 1.302472,0.170477 -1.044653,7.966896 -0.472657,11.36914 0.176783,1.051511 -13.913487,-3.477385 -20.896484,-4.916016 -3.801311,-0.783141 -7.636386,-1.56573 -11.535156,-2.039062 -2.474999,-0.300478 -4.841339,-0.0077 -6.9375,-0.455078 -0.927079,-0.197867 -2.2394,-0.817358 -3.47461,-1.208984 0.06482,-0.953046 0.137633,-2.067182 0.109375,-2.88086 -0.06895,-1.985402 0.26239,-4.136038 0.208985,-5.779297 -0.05516,-1.697287 0.814418,-5.180227 0.927735,-5.75 z M 100.9201,56.1497 c 0.43814,3.097404 1.14906,6.031138 0.8086,9.595703 l -18.617185,9.707031 c 0.05929,-3.91048 -0.616231,-7.812491 -0.976563,-11.30664 z m -19.339835,9.041016 c 0.28611,2.386311 0.830245,8.114095 0.761718,10.753906 -0.741325,0.54638 -1.546149,0.361244 -2.044921,0.09375 -0.468518,-1.840344 0.48025,-8.030885 1.283203,-10.847656 z"
       id="path4150"
       inkscape:connector-curvature="0"
       sodipodi:nodetypes="scccssssssssssssssssssssssssscssssscsscccssscssssssssccsscssccssscsscssccssscccscccsccsscccccccccsscscscssssssssssssssssscccssssccsscsscccssssscsscccssssccsssssccccscccccccscssssssccccccccssscsscccccccccccc" />
    <path
       style="fill:#ffffff;fill-rule:evenodd;stroke:#0000ff;stroke-width:0.29055119;stroke-linecap:butt;stroke-linejoin:miter;stroke-miterlimit:4;stroke-dasharray:none;stroke-opacity:1"
       d="m 13.929874,37.747737 c 0.665046,-3.016589 1.654584,-5.49236 1.875,-9.25 -0.129023,-2.239914 -0.134001,-4.405401 -1.0625,-7.125 0.07596,-0.530237 0.300942,-1.010797 0.875,-1.375 l 7.3125,0.5 10.375,-1.25 c 1.231379,0.01425 0.829023,0.495279 1,0.8125 -1.05125,3.169491 -1.810585,6.111937 -1.375,8.125 l 1.0625,8.5625 c 0.02189,0.495056 0.143992,1.015165 -1.125,1.1875 -3.239453,-0.447525 -6.426675,-0.738358 -9.5,-0.6875 -3.186326,0.106514 -5.934378,1.089578 -8.8125,1.8125 -0.823686,-0.806712 -0.576363,-0.970818 -0.625,-1.3125 z"
       id="path4233"
       inkscape:connector-curvature="0"
       sodipodi:nodetypes="ccccccccccccc" />
    <path
       style="fill:url(#pattern5906);fill-opacity:1;fill-rule:evenodd;stroke:none;stroke-width:0.29055119;stroke-linecap:butt;stroke-linejoin:miter;stroke-miterlimit:4;stroke-dasharray:none;stroke-opacity:1"
       d="m 15.027277,33.218724 c -0.76998,2.136988 -0.86916,3.227153 -1.190803,5.038741 1.257893,0.659541 2.473433,0.670144 5.433443,-0.707712 l 4.596194,-0.53033 8.57367,0.707107 c 0.552265,0.05828 1.0678,-0.03037 1.502602,-0.441942 l -0.14331,-2.891466 c -4.981918,1.398701 -8.783918,0.743171 -13.203335,1.035309 -2.769653,0.17693 -5.042282,-3.563095 -5.568461,-2.209707 z"
       id="path5814"
       inkscape:connector-curvature="0"
       sodipodi:nodetypes="ccccccccc" />
    <path
       style="color:#000000;font-style:normal;font-variant:normal;font-weight:normal;font-stretch:normal;font-size:medium;line-height:normal;font-family:sans-serif;text-indent:0;text-align:start;text-decoration:none;text-decoration-line:none;text-decoration-style:solid;text-decoration-color:#000000;letter-spacing:normal;word-spacing:normal;text-transform:none;direction:ltr;block-progression:tb;writing-mode:lr-tb;baseline-shift:baseline;text-anchor:start;white-space:normal;clip-rule:nonzero;display:inline;overflow:visible;visibility:visible;opacity:1;isolation:auto;mix-blend-mode:normal;color-interpolation:sRGB;color-interpolation-filters:linearRGB;solid-color:#000000;solid-opacity:1;fill:#000000;fill-opacity:1;fill-rule:evenodd;stroke:none;stroke-width:1px;stroke-linecap:butt;stroke-linejoin:miter;stroke-miterlimit:4;stroke-dasharray:none;stroke-dashoffset:0;stroke-opacity:1;color-rendering:auto;image-rendering:auto;shape-rendering:auto;text-rendering:auto;enable-background:accumulate"
       d="m 33.181827,19.005171 c -3.080989,0.129738 -6.106153,1.025083 -9.158207,1.162075 -2.028326,0.09104 -4.19286,-0.292946 -6.292969,-0.351562 -6.66e-4,-1.9e-5 -0.0013,0 -0.002,0 -6.67e-4,0 0.762963,0.07395 -0.002,0 -0.912247,-0.08819 -1.685609,-0.114393 -2.304687,0.06445 -0.30954,0.08942 -0.688086,0.208419 -0.796876,0.542968 -0.291038,0.894994 -0.03094,1.326346 0.08008,2.41211 0.173335,1.695274 0.416923,3.355292 0.353515,4.972656 -0.120604,3.076175 -1.230346,8.984443 -1.445127,9.486751 -0.269712,0.630775 -0.08786,1.179015 0.200992,1.62653 0.200387,0.310456 0.637617,0.35499 1.074218,0.373047 0.436602,0.01806 0.968255,-0.04543 1.318109,-0.109646 0.433643,-0.0796 3.854441,-1.148915 5.500246,-1.314216 3.446565,-0.346165 10.560078,0.331151 11.059991,0.421668 0.376398,0.06815 1.050611,-0.04272 1.432199,-0.521317 0.381589,-0.478597 0.356955,-1.092048 0.234375,-1.732422 -0.01054,-0.05505 -0.146953,-1.8891 -0.291015,-2.689453 -0.44335,-2.463068 -0.435603,-4.434494 -0.236328,-6.927735 0.155373,-1.943959 0.774387,-6.07572 0.774387,-6.07572 0.06931,-0.146033 0.161059,-0.486831 0.01077,-0.844202 -0.07514,-0.178685 -0.225167,-0.326733 -0.373047,-0.404296 -0.366714,-0.175523 -0.760134,-0.103998 -1.136624,-0.09169 z m 0.208336,2.056928 c 0,0 -1.003339,3.265004 -1.169305,5.341505 -0.204908,2.56371 0.138395,4.606947 0.59375,7.136719 0.127703,0.709471 0.766711,2.614464 0.810006,2.837362 0.05415,0.278768 -0.0085,0.709843 -0.08145,0.801305 -0.07292,0.09146 -0.422408,0.244957 -0.754172,0.186886 -0.201632,-0.03529 -7.473115,-0.862357 -11.183326,-0.489712 -1.894698,0.1903 -5.21649,1.234192 -5.269531,1.246094 -0.639028,0.143391 -1.106052,0.184288 -1.40625,0.171875 -0.300198,-0.01241 -0.610978,-0.09561 -0.615532,-0.251069 -0.02145,-0.732168 0.77993,-2.586469 0.95556,-3.223365 0.07569,-0.274464 1.064063,-3.35064 1.19321,-6.644707 0.06849,-1.747068 -0.488874,-3.823774 -1.011719,-5.402344 -0.183751,-0.55478 -0.185962,-1.245084 -0.226604,-1.757813 -0.02193,-0.276699 0.287834,-0.436322 0.460937,-0.486328 0.345512,-0.09981 1.157749,-0.03415 2.019532,0.04883 0.670274,0.06454 4.062158,0.41043 6.279296,0.324219 2.975416,-0.115695 7.939454,-0.890625 7.939454,-0.890625 0.357607,0.01104 1.40094,-0.547202 1.917393,-0.388835 0.563328,0.205242 -0.391322,1.282097 -0.451252,1.440008 z"
       id="path4223"
       inkscape:connector-curvature="0"
       sodipodi:nodetypes="csssssssssssssssssscccccssssssssssssssssccc" />
    <path
       style="color:#000000;font-style:normal;font-variant:normal;font-weight:normal;font-stretch:normal;font-size:medium;line-height:normal;font-family:sans-serif;text-indent:0;text-align:start;text-decoration:none;text-decoration-line:none;text-decoration-style:solid;text-decoration-color:#000000;letter-spacing:normal;word-spacing:normal;text-transform:none;direction:ltr;block-progression:tb;writing-mode:lr-tb;baseline-shift:baseline;text-anchor:start;white-space:normal;clip-rule:nonzero;display:inline;overflow:visible;visibility:visible;opacity:1;isolation:auto;mix-blend-mode:normal;color-interpolation:sRGB;color-interpolation-filters:linearRGB;solid-color:#000000;solid-opacity:1;fill:#000000;fill-opacity:1;fill-rule:evenodd;stroke:none;stroke-width:1px;stroke-linecap:butt;stroke-linejoin:miter;stroke-miterlimit:4;stroke-dasharray:none;stroke-dashoffset:0;stroke-opacity:1;color-rendering:auto;image-rendering:auto;shape-rendering:auto;text-rendering:auto;enable-background:accumulate"
       d="m 74.87128,18.811809 c -0.502006,0.328772 -0.549704,0.830877 -1.317529,2.121377 -0.767824,1.2905 -1.467803,3.384344 -2.582866,6.31417 -3.560147,4.735393 -3.906656,7.910064 -5.294922,11.460938 -0.09619,0.08216 -0.322146,0.37044 -0.402344,0.501953 -0.120439,0.1975 -0.12894,0.444414 0.02925,0.691406 0.158234,0.246992 0.473302,0.272054 0.751953,0.386719 0.278651,0.114664 0.633839,0.214933 1.950432,0.408931 1.316594,0.193998 2.31312,0.49123 2.813241,0.743454 0.500121,0.252223 1.153425,0.596599 1.582031,0.951171 l -0.08008,-1.990234 c -0.270167,-0.2235 -0.02635,0.08449 -0.708984,-0.259766 -0.676208,-0.341028 -1.614024,-0.668651 -3.744141,-0.955078 -0.43774,-0.09199 -2.369901,1.033875 -0.997131,-1.38798 0.71652,-2.015605 2.260646,-6.326669 5.002653,-10.178557 1.335757,-3.914387 1.818142,-4.954793 2.58577,-6.424347 0.361377,-1.157055 0.553913,-1.582789 0.955762,-1.831556 0.71435,0.03248 0.44384,0.27885 2.001346,0.6146 1.557507,0.335731 2.046811,1.116423 3.405985,1.468156 1.359174,0.351733 2.213138,0.18383 3.473689,0.122736 1.260552,-0.06109 1.308871,-0.505818 1.769184,-0.533512 0.408582,-0.02458 1.766575,-0.07774 1.974387,0.06757 0.551563,0.520313 -1.151227,1.198355 -1.51536,1.528134 -0.576954,0.522522 -1.418393,1.036552 -1.972533,3.004659 -0.554139,1.968107 -2.382923,4.016775 -3.138805,5.899642 l 3.646484,-0.533203 c 0.695505,-1.732472 1.422116,-2.690552 1.958985,-5.53711 0.53686,-0.963369 1.075198,-1.646558 1.402343,-2.458984 0.166034,-0.412323 0.254368,-0.813692 0.271485,-1.179688 0.0086,-0.182998 0.1783,-0.685021 0.09375,-0.873047 -0.08457,-0.188025 -0.345424,-0.299356 -0.716173,-0.406928 -0.370748,-0.107573 -0.87893,-0.267275 -1.533828,-0.227873 -0.590224,0.03551 -1.314648,0.320005 -2.154297,0.808594 -1.268956,-0.444576 -2.269968,-0.355219 -3.207031,-0.425782 -1.185222,-0.490608 -2.028936,-1.143679 -4.53125,-1.474609 -0.308335,-0.235068 -0.588594,-0.424918 -0.877722,-0.516149 -0.289127,-0.09123 -0.642737,-0.0642 -0.893736,0.100193 z"
       id="path4225"
       inkscape:connector-curvature="0"
       sodipodi:nodetypes="scccscscsccsccccccccscsccccscccsccccs" />
  </g>
</svg>
